SplineFontDB: 3.0
FontName: Amatoro
FullName: Amatoro
FamilyName: Amatoro
Weight: Medium
Copyright: Copyright (c) 2011 Barry Schwartz
UComments: "Scan 11-pt Baskerville at 6400x6400 dpi.+AAoA-Cut samples 978 pixels high; import them without scaling." 
Version: 0.1
ItalicAngle: 0
UnderlinePosition: -100
UnderlineWidth: 50
Ascent: 680
Descent: 320
LayerCount: 3
Layer: 0 0 "Back"  1
Layer: 1 0 "Fore"  0
Layer: 2 0 "backup"  0
NeedsXUIDChange: 1
XUID: [1021 658 797806517 1669643]
FSType: 8
OS2Version: 0
OS2_WeightWidthSlopeOnly: 0
OS2_UseTypoMetrics: 1
CreationTime: 1297644581
ModificationTime: 1298108047
PfmFamily: 17
TTFWeight: 500
TTFWidth: 5
LineGap: 90
VLineGap: 0
OS2TypoAscent: 0
OS2TypoAOffset: 1
OS2TypoDescent: 0
OS2TypoDOffset: 1
OS2TypoLinegap: 90
OS2WinAscent: 0
OS2WinAOffset: 1
OS2WinDescent: 0
OS2WinDOffset: 1
HheadAscent: 0
HheadAOffset: 1
HheadDescent: 0
HheadDOffset: 1
OS2Vendor: 'PfEd'
MarkAttachClasses: 1
DEI: 91125
LangName: 1033 
Encoding: UnicodeBmp
UnicodeInterp: none
NameList: Adobe Glyph List
DisplaySize: -48
AntiAlias: 1
FitToEm: 1
WinInfo: 72 12 6
BeginPrivate: 9
BlueValues 23 [-22 0 401 430 656 667]
OtherBlues 11 [-239 -227]
BlueScale 5 0.036
BlueShift 1 7
BlueFuzz 1 0
StemSnapH 33 [20 25 31 36 41 46 72 76 104 144]
StemSnapV 33 [49 58 68 72 76 80 86 95 104 144]
StdHW 4 [31]
StdVW 4 [72]
EndPrivate
BeginChars: 65536 53

StartChar: a
Encoding: 97 97 0
Width: 472
VWidth: 0
Flags: W
HStem: -13 45<141.212 248.4 377.581 442.243> 390 33<150.314 268.286>
VStem: 36 90<47.1775 145.091> 44 85<306.898 373.662> 300 76<63.8887 215.999 244.579 366.674>
LayerCount: 3
Fore
SplineSet
463 37 m 0xd8
 463 29 436 -13 384 -13 c 0
 340 -13 313 16 309 40 c 0
 307 52 305 59 295 46 c 0
 267 9 204 -17 151 -17 c 0
 80 -17 36 21 36 86 c 0xe8
 36 181 176 232 290 246 c 0
 299 247 300 247 300 257 c 2
 300 289 l 2
 300 339 292 390 207 390 c 0
 164 390 139 376 129 341 c 0
 121 313 102 297 79 297 c 0
 60 297 44 313 44 333 c 0
 44 382 127 423 208 423 c 0
 350 423 376 366 376 296 c 0
 376 231 373 94 373 76 c 0
 373 47 391 32 407 32 c 0
 434 32 443 55 446 55 c 0
 450 55 463 42 463 37 c 0xd8
126 98 m 0
 126 67 142 34 192 34 c 0
 243 34 298 76 298 77 c 0
 298 116 299 178 299 206 c 0
 299 214 299 216 296 216 c 0
 295 216 293 215 290 215 c 0
 205 203 126 169 126 98 c 0
EndSplineSet
Layer: 2
SplineSet
383 76 m 4
 383 47 396 32 412 32 c 4
 439 32 450 60 453 60 c 4
 457 60 473 51 473 44 c 4
 473 32 440 -13 390 -13 c 4
 342 -13 323 15 319 40 c 4
 317 52 315 59 305 46 c 4
 277 9 214 -17 161 -17 c 4xd8
 96 -17 46 8 46 83 c 4
 46 183 232 237 300 247 c 4
 309 249 310 248 310 258 c 6
 310 306 l 6
 310 329 308 388 217 388 c 4
 177 388 150 377 140 347 c 4
 131 321 115 302 84 302 c 4
 67 302 54 316 54 334 c 4
 54 389 140 422 233 422 c 4
 372 422 386 368 386 296 c 4
 386 231 383 94 383 76 c 4
133 95 m 4
 133 58 159 34 202 34 c 4
 253 34 308 76 308 77 c 4
 308 116 309 177 309 205 c 4
 309 213 309 215 306 215 c 4
 305 215 303 214 300 214 c 4
 245 208 133 176 133 95 c 4
156 -17 m 0xd8
 82 -17 37 22 37 86 c 0xe8
 37 193 229 247 300 257 c 0
 311 259 309 254 310 273 c 1
 310 287 l 2
 310 323 301 386 229 386 c 0
 179 386 149 381 138 336 c 0
 132 313 115 300 92 300 c 0
 70 300 56 316 56 330 c 0
 56 366 93 391 113 401 c 0
 153 422 203 422 238 422 c 0
 356 422 389 352 389 310 c 0
 389 273 383 99 383 76 c 0
 383 48 396 32 411 32 c 0
 445 32 440 60 455 60 c 0
 462 60 472 51 472 44 c 0
 472 20 429 -13 395 -13 c 0
 337 -13 323 14 319 40 c 0
 317 52 315 59 305 46 c 0
 277 9 216 -17 156 -17 c 0xd8
128 105 m 0
 128 62 154 34 197 34 c 0
 248 34 305 76 305 77 c 0
 305 85 309 181 309 197 c 0
 309 211 308 225 304 225 c 0
 264 224 172 183 152 163 c 0
 138 149 128 132 128 105 c 0
EndSplineSet
EndChar

StartChar: b
Encoding: 98 98 1
Width: 522
VWidth: 0
Flags: W
HStem: -22 39<192.931 336.786> 386 37<203.942 335.012> 618 32<6.00785 56.3896> 647 20G<130.5 138>
VStem: 64 73<61.6733 335.249 375.959 612.58> 398 89<103.5 312.134>
LayerCount: 3
Fore
SplineSet
487 203 m 0xdc
 487 62 378 -22 272 -22 c 0
 184 -22 145 23 132 42 c 0
 125 52 125 56 120 45 c 0
 109 23 92 -18 79 -18 c 0
 65 -18 64 -4 64 9 c 0
 64 30 66 216 66 300 c 2
 66 488 l 2
 66 507 66 545 65 561 c 0
 63 599 60 618 12 618 c 0
 6 618 6 630 6 636 c 0
 6 642 7 650 12 650 c 0xec
 95 653 126 667 135 667 c 0
 141 667 147 665 147 656 c 0
 147 653 140 577 140 374 c 0
 140 360 150 366 156 373 c 0
 183 405 247 423 284 423 c 0
 416 423 487 331 487 203 c 0xdc
270 386 m 0
 198 386 139 343 139 274 c 0
 139 225 137 106 137 97 c 0
 137 82 180 17 269 17 c 0
 350 17 398 72 398 197 c 0
 398 301 367 386 270 386 c 0
EndSplineSet
Layer: 2
SplineSet
294 -22 m 4
 178 -22 143 47 134 47 c 4
 115 47 104 -18 78 -18 c 4
 62 -18 59 0 59 14 c 4xf4
 59 40 66 122 66 554 c 4
 66 600 59 621 15 621 c 4
 8 621 7 629 7 635 c 4xec
 7 641 8 650 14 650 c 4
 62 650 124 667 132 667 c 4
 136 667 147 666 147 653 c 4
 147 632 140 587 140 384 c 4
 140 371 142 364 152 373 c 4
 183 401 225 423 287 423 c 4
 400 423 493 336 493 216 c 4
 493 89 410 -22 294 -22 c 4
407 202 m 4
 407 304 364 389 270 389 c 4
 170 389 138 315 138 222 c 4
 138 173 141 119 143 110 c 4
 151 66 210 18 266 18 c 4
 347 18 407 100 407 202 c 4
7 634 m 0xec
 7 640 9 649 15 649 c 0
 76 654 127 667 135 667 c 0
 139 667 145 666 145 657 c 0
 145 627 141 583 141 384 c 0
 141 371 142 365 152 373 c 0
 184 399 225 423 287 423 c 0
 401 423 493 336 493 212 c 0
 493 86 409 -22 291 -22 c 0
 190 -22 152 43 138 43 c 0
 112 43 104 -18 78 -18 c 0
 62 -18 59 0 59 14 c 0xf4
 59 40 66 122 66 554 c 0
 66 600 58 621 17 621 c 0
 10 621 7 628 7 634 c 0xec
407 202 m 0
 407 301 364 389 273 389 c 0
 208 389 139 342 139 311 c 2
 141 105 l 2
 141 73 210 18 266 18 c 0
 354 18 407 100 407 202 c 0
EndSplineSet
EndChar

StartChar: c
Encoding: 99 99 2
Width: 434
VWidth: 0
Flags: HWO
HStem: -17 44<189.412 341.648> 387 37<187.618 306.844>
VStem: 32 85<104.318 295.193>
LayerCount: 3
Fore
SplineSet
246 -17 m 0
 108 -17 32 78 32 198 c 0
 32 343 150 424 261 424 c 0
 351 424 398 382 398 347 c 0
 398 328 387 311 362 311 c 0
 345 311 333 325 327 336 c 0
 315 357 309 387 254 387 c 0
 174 387 117 323 117 206 c 0
 117 79 188 27 265 27 c 0
 348 27 382 81 386 81 c 0
 391 81 406 62 406 58 c 0
 406 51 350 -17 246 -17 c 0
EndSplineSet
Layer: 2
SplineSet
254 387 m 4
 168 387 117 323 117 206 c 4
 117 81 188 28 263 28 c 4
 352 28 369 87 376 87 c 4
 384 87 400 76 400 70 c 4
 400 60 359 -17 248 -17 c 4
 109 -17 32 78 32 198 c 4
 32 341 149 424 252 424 c 4
 301 424 336 420 370 394 c 4
 383 384 398 366 398 347 c 4
 398 328 387 311 362 311 c 4
 345 311 333 325 327 336 c 4
 315 357 309 387 254 387 c 4
254 387 m 0
 168 387 117 323 117 206 c 0
 117 81 188 28 263 28 c 0
 324 28 354 52 364 75 c 0
 367 82 368 87 374 87 c 0
 382 87 398 79 398 70 c 0
 398 65 397 60 391 50 c 0
 378 28 334 -17 248 -17 c 0
 115 -17 32 78 32 198 c 0
 32 341 149 424 252 424 c 0
 301 424 336 420 370 394 c 0
 383 384 398 366 398 347 c 0
 398 328 387 311 362 311 c 0
 345 311 333 325 327 336 c 0
 315 357 309 387 254 387 c 0
EndSplineSet
EndChar

StartChar: d
Encoding: 100 100 3
Width: 542
VWidth: 0
Flags: W
HStem: -10 41<183.498 328.616> 2 28<463.052 516.999> 392 31<195.573 322.73> 619 32<312.001 368.985>
VStem: 33 89<98.1229 302.926> 381 73<66.8419 348.043 389.481 613.36>
LayerCount: 3
Fore
SplineSet
229 -10 m 0xbc
 116 -10 33 69 33 201 c 0
 33 322 113 423 241 423 c 0
 300 423 340 410 368 382 c 0
 375 375 379 374 379 384 c 0
 379 560 379 557 376 587 c 0
 373 618 347 619 317 619 c 0
 312 619 312 625 312 635 c 0
 312 647 313 651 318 651 c 0
 401 655 438 668 445 668 c 0
 452 668 460 665 460 657 c 0
 460 651 454 564 454 366 c 2
 454 224 l 2
 454 192 454 153 455 119 c 0
 457 37 455 30 509 30 c 0
 515 30 517 27 517 16 c 0
 517 5 515 2 510 2 c 0x7c
 442 0 409 -11 402 -11 c 0
 395 -11 387 -10 387 4 c 2
 387 47 l 2
 387 61 379 60 376 53 c 0
 362 23 312 -10 229 -10 c 0xbc
122 210 m 0
 122 100 166 31 252 31 c 0xbc
 350 31 384 91 384 101 c 0
 384 111 381 289 381 299 c 0
 380 335 340 392 255 392 c 0
 148 392 122 277 122 210 c 0
EndSplineSet
Layer: 2
SplineSet
232 -14 m 4
 99 -14 28 86 28 202 c 4
 28 327 109 424 232 424 c 4
 284 424 336 404 379 366 c 5
 379 542 378 562 377 587 c 4
 376 621 350 624 327 624 c 4
 322 624 317 626 317 636 c 4
 317 648 323 651 328 651 c 4
 387 651 436 666 443 666 c 4
 448 666 454 664 454 655 c 4
 454 616 450 244 450 85 c 4
 450 53 474 32 509 28 c 4
 513 28 517 26 517 17 c 4
 517 8 514 2 511 2 c 4
 473 0 411 -11 402 -11 c 4
 382 -11 384 7 382 62 c 5
 346 19 301 -14 232 -14 c 4
111 196 m 4
 111 111 167 28 248 28 c 4
 333 28 379 92 379 115 c 6
 379 323 l 6
 379 342 325 383 256 383 c 4
 155 383 111 308 111 196 c 4
EndSplineSet
EndChar

StartChar: e
Encoding: 101 101 4
Width: 434
VWidth: 0
Flags: W
HStem: -16 46<183.448 330.069> 263 28<129 309.946> 393 30<178.039 275.511>
VStem: 34 80<108.538 261.103> 310 87<275.5 354.105>
LayerCount: 3
Fore
SplineSet
238 -16 m 0
 117 -16 34 66 34 200 c 0
 34 318 109 423 234 423 c 0
 324 423 397 366 397 281 c 0
 397 270 392 262 373 262 c 0
 274 262 163 263 125 263 c 0
 117 263 114 238 114 218 c 0
 114 127 148 30 259 30 c 0
 346 30 380 89 384 89 c 0
 388 89 406 73 406 69 c 0
 406 64 348 -16 238 -16 c 0
224 393 m 0
 158 393 129 323 129 299 c 0
 129 294 129 291 133 291 c 2
 302 292 l 2
 307 292 310 298 310 307 c 0
 310 335 297 393 224 393 c 0
EndSplineSet
Layer: 2
SplineSet
111 215 m 4
 111 124 152 31 258 31 c 4
 332 31 349 67 359 84 c 4
 360 86 363 87 366 87 c 4
 375 87 389 79 389 73 c 4
 389 71 388 69 387 67 c 4
 374 35 334 -16 241 -16 c 4
 105 -16 29 65 29 208 c 4
 29 330 112 421 234 421 c 4
 324 421 397 381 397 281 c 4
 397 270 392 262 373 262 c 4
 274 262 159 263 121 263 c 4
 113 263 111 235 111 215 c 4
224 391 m 4
 158 391 125 323 125 299 c 4
 125 294 125 291 129 291 c 6
 305 292 l 6
 310 292 313 298 313 307 c 4
 313 335 297 391 224 391 c 4
EndSplineSet
EndChar

StartChar: f
Encoding: 102 102 6
Width: 286
VWidth: 0
Flags: W
HStem: -2 33<24.0012 86.0226 178.311 251> 373 37<26.0007 95 171 260> 637.128 28.8719<205.244 285.788>
VStem: 95 76<36.4562 373 410 564.926> 291 70<574.344 634.034>
LayerCount: 3
Back
SplineSet
95 450 m 6
 95 556 140 666 262 666 c 4
 340 666 358 630 358 605 c 4
 358 584 341 574 325 574 c 4
 313 574 304 580 297 589 c 4
 284 607 292 637 244 637 c 4
 178 637 171 571 171 529 c 6
 171 423 l 6
 171 415 171 410 182 410 c 6
 254 410 l 6
 260 410 260 407 260 391 c 4
 260 376 260 373 254 373 c 6
 183 373 l 6
 174 373 171 371 171 359 c 6
 171 192 l 6
 171 153 171 114 172 79 c 4
 174 40 178 31 245 31 c 4
 251 31 251 31 251 15 c 4
 251 1 251 -2 246 -2 c 4
 231 -2 189 0 142 0 c 6
 127 0 l 6
 80 0 37 -2 29 -2 c 4
 24 -2 24 3 24 13 c 4
 24 21 24 31 29 31 c 4
 78 31 91 37 93 79 c 4
 95 115 95 154 95 192 c 6
 95 360 l 6
 95 368 93 373 84 373 c 6
 33 373 l 6
 27 373 26 377 26 391 c 4
 26 406 27 410 33 410 c 6
 84 410 l 6
 92 410 95 411 95 423 c 6
 95 450 l 6
EndSplineSet
Fore
SplineSet
171 529 m 2
 171 423 l 2
 171 415 171 410 182 410 c 2
 254 410 l 2
 260 410 260 407 260 391 c 0
 260 376 260 373 254 373 c 2
 183 373 l 2
 174 373 171 371 171 359 c 2
 171 192 l 2
 171 153 171 114 172 79 c 0
 174 40 178 31 245 31 c 0
 251 31 251 31 251 15 c 0
 251 1 251 -2 246 -2 c 0
 231 -2 189 0 142 0 c 2
 127 0 l 2
 80 0 37 -2 29 -2 c 0
 24 -2 24 3 24 13 c 0
 24 21 24 31 29 31 c 0
 78 31 91 37 93 79 c 0
 95 115 95 154 95 192 c 2
 95 360 l 2
 95 368 93 373 84 373 c 2
 33 373 l 2
 27 373 26 377 26 391 c 0
 26 406 27 410 33 410 c 2
 84 410 l 2
 92 410 95 411 95 423 c 2
 95 450 l 2
 95 556 140 666 262 666 c 0
 340 666 361 630 361 605 c 0
 361 585 345 572 326 572 c 0
 296 572 291 601 291 611 c 0
 291 616.740658618 282.761209659 637.12805562 252.269974822 637.12805562 c 0
 179.158510808 637.12805562 171 572.035576538 171 529 c 2
EndSplineSet
Layer: 2
SplineSet
95 450 m 6
 95 556 140 666 262 666 c 4
 340 666 358 630 358 605 c 4
 358 584 341 574 325 574 c 4
 313 574 304 580 297 589 c 4
 284 607 292 637 244 637 c 4
 178 637 171 571 171 529 c 6
 171 423 l 6
 171 415 171 410 182 410 c 6
 254 410 l 6
 260 410 260 407 260 391 c 4
 260 376 260 373 254 373 c 6
 183 373 l 6
 174 373 171 371 171 359 c 6
 171 192 l 6
 171 153 171 114 172 79 c 4
 174 40 178 31 245 31 c 4
 251 31 251 31 251 15 c 4
 251 1 251 -2 246 -2 c 4
 231 -2 189 0 142 0 c 6
 127 0 l 6
 80 0 37 -2 29 -2 c 4
 24 -2 24 3 24 13 c 4
 24 21 24 31 29 31 c 4
 78 31 91 37 93 79 c 4
 95 115 95 154 95 192 c 6
 95 360 l 6
 95 368 93 373 84 373 c 6
 33 373 l 6
 27 373 26 377 26 391 c 4
 26 406 27 410 33 410 c 6
 84 410 l 6
 92 410 95 411 95 423 c 6
 95 450 l 6
353 597 m 0
 353 577 342 560 315 560 c 0
 289 560 282 583 278 604 c 0
 276 616 266 638 239 638 c 0
 178 638 168 524 168 460 c 2
 168 424 l 2
 168 414 171 405 186 405 c 0
 209 405 230 406 249 406 c 0
 256 406 259 403 259 391 c 0
 259 381 254 378 249 378 c 0
 237 378 205 379 187 379 c 0
 168 379 168 377 168 363 c 2
 168 79 l 2
 168 51 177 29 230 29 c 0
 236 29 241 28 241 12 c 0
 241 -1 236 -3 229 -3 c 0
 218 -3 169 0 134 0 c 2
 122 0 l 2
 92 0 41 -3 33 -3 c 0
 21 -3 21 3 21 13 c 0
 21 21 23 29 34 29 c 0
 90 29 91 49 92 80 c 0
 94 178 97 263 97 362 c 0
 97 370 97 379 86 379 c 0
 69 379 51 378 34 378 c 0
 27 378 25 386 25 391 c 0
 25 400 26 406 36 406 c 0
 50 406 64 405 79 405 c 0
 95 405 97 409 97 417 c 2
 97 440 l 2
 97 579 163 667 268 667 c 0
 315 667 353 634 353 597 c 0
EndSplineSet
EndChar

StartChar: g
Encoding: 103 103 7
Width: 499
VWidth: 0
Flags: W
HStem: -239 35<141.25 317.637> -17 77<98.9714 349.629> 127 26<171.78 250.332> 391 30<369.248 431.5> 398 27<170.574 255.472>
VStem: 24 62<-162.983 -61.6947> 45 50<33 116.839> 49 81<195.576 351.013> 295 83<200.836 361.326> 377 59<-156.395 -41.3408> 411 63<338.552 389.894>
LayerCount: 3
Fore
SplineSet
474 371 m 0xf120
 474 360 466 337 442 337 c 0
 419 337 412 356 411 368 c 0
 410 387 405 391 392 391 c 0
 372 391 362 364 362 359 c 0
 362 353 378 328 378 284 c 0
 378 206 330 127 208 127 c 0
 197 127 157 128 152 128 c 0
 129 128 95 115 95 92 c 0xf2a0
 95 63 136 60 169 60 c 2
 261 60 l 2
 378 60 436 20 436 -81 c 0
 436 -194 324 -239 224 -239 c 0
 102 -239 24 -191 24 -114 c 0
 24 -64 72 -34 99 -34 c 0
 116 -34 127 -42 127 -48 c 0
 127 -53 86 -61 86 -106 c 0xf440
 86 -183 173 -204 224 -204 c 0
 300 -204 377 -178 377 -98 c 0
 377 -26 320 -17 250 -17 c 2
 162 -17 l 2
 81 -17 45 7 45 59 c 0xf240
 45 108 83 139 115 146 c 0
 123 148 120 150 114 154 c 0
 83 175 49 206 49 273 c 0
 49 364 123 425 211 425 c 0xe9
 276 425 316 402 334 387 c 0
 339 382 345 381 349 387 c 0
 360 405 387 421 417 421 c 0
 446 421 474 406 474 371 c 0xf120
295 274 m 0
 295 343 270 398 214 398 c 0
 146 398 130 332 130 270 c 0xe980
 130 209 156 153 212 153 c 0
 260 153 295 191 295 274 c 0
EndSplineSet
Layer: 2
SplineSet
485 382 m 4xf240
 485 364 472 351 453 351 c 4
 433 351 419 374 398 374 c 4
 388 374 376 365 376 352 c 4
 376 350 376 348 377 346 c 4
 385 324 388 295 388 284 c 4
 388 206 330 127 208 127 c 4
 197 127 175 132 152 132 c 4
 129 132 95 115 95 92 c 4xf180
 95 63 135 62 163 61 c 4
 215 60 241 58 289 54 c 4
 369 48 436 -5 436 -82 c 4
 436 -183 337 -239 232 -239 c 4
 139 -239 25 -209 25 -105 c 4
 25 -66 63 -27 94 -27 c 4
 100 -27 109 -29 109 -36 c 4
 109 -41 74 -64 74 -109 c 4xf440
 74 -185 184 -200 224 -200 c 4
 301 -200 378 -175 378 -99 c 4
 378 -17 278 -15 202 -15 c 6
 162 -15 l 6
 151 -15 136 -15 112 -14 c 4
 80 -12 45 36 45 59 c 4
 45 108 68 122 99 148 c 4
 107 154 103 162 95 168 c 4xf140
 77 183 39 211 39 273 c 4
 39 364 113 425 201 425 c 4xea
 291 425 340 384 344 384 c 4
 352 384 383 423 436 423 c 4
 461 423 485 408 485 382 c 4xf240
219 393 m 4xea80
 145 393 122 331 122 270 c 4
 122 211 146 158 212 158 c 4
 266 158 303 194 303 274 c 4
 303 338 277 393 219 393 c 4xea80
EndSplineSet
EndChar

StartChar: h
Encoding: 104 104 8
Width: 550
VWidth: 0
Flags: W
HStem: -2 34<24.0003 85.0353 173.659 242 312 374.34 465.205 531> 382 41<244.292 350.999> 617 31<29.0004 83.25> 644 20G<159.5 165>
VStem: 93 74<37.4844 320.509 359.145 591.344> 384 74<37.5265 347.663>
LayerCount: 3
Fore
SplineSet
384 216 m 0xdc
 384 310 378 382 293 382 c 0
 242 382 166 325 166 254 c 0
 166 196 166 92 167 78 c 0
 170 32 186 32 236 32 c 0
 242 32 242 23 242 15 c 0
 242 2 242 -2 236 -2 c 0
 226 -2 190 0 147 0 c 2
 120 0 l 2
 83 0 41 -2 33 -2 c 0
 24 -2 24 3 24 16 c 0
 24 29 24 32 30 32 c 0
 83 32 89 44 90 76 c 0
 93 167 93 234 93 320 c 2
 93 464 l 2
 93 473 92 560 92 569 c 0
 90 607 78 617 33 617 c 0
 29 617 29 620 29 634 c 0
 29 644 29 648 33 648 c 0xec
 106 651 157 664 162 664 c 0
 168 664 175 659 175 651 c 0
 175 636 167 585 167 354 c 0
 167 334 172 337 180 349 c 0
 204 385 262 423 324 423 c 0
 444 423 458 339 458 217 c 2
 458 101 l 2
 458 36 467 32 526 32 c 0
 531 32 531 27 531 16 c 0
 531 2 531 -2 527 -2 c 0
 513 -2 484 0 440 0 c 2
 409 0 l 2
 364 0 326 -2 317 -2 c 0
 312 -2 312 -1 312 14 c 0
 312 29 312 32 317 32 c 0
 371 32 383 36 383 106 c 0
 383 139 384 185 384 216 c 0xdc
EndSplineSet
Layer: 2
SplineSet
385 216 m 4xdc
 385 310 378 382 293 382 c 4
 242 382 166 325 166 254 c 4
 166 196 166 97 167 83 c 4
 170 37 186 29 234 29 c 4
 242 29 242 20 242 12 c 4
 242 -1 237 -2 224 -2 c 4
 214 -2 190 0 147 0 c 6
 122 0 l 6
 85 0 55 -2 40 -2 c 4
 29 -2 26 0 26 13 c 4
 26 26 31 29 37 29 c 4
 83 29 91 50 92 81 c 4
 95 183 95 249 95 351 c 6
 95 545 l 6
 95 554 95 563 94 572 c 4
 90 605 85 620 40 620 c 4
 35 620 31 622 31 634 c 4
 31 644 34 648 40 648 c 4xec
 92 648 149 664 161 664 c 4
 167 664 174 659 174 651 c 4
 174 628 167 627 167 351 c 4
 167 340 169 334 178 346 c 4
 204 381 255 423 324 423 c 4
 420 423 457 348 457 272 c 6
 457 116 l 6
 457 51 463 29 522 29 c 4
 528 29 536 27 536 16 c 4
 536 2 534 -2 523 -2 c 4
 509 -2 483 0 439 0 c 6
 410 0 l 6
 365 0 336 -2 327 -2 c 4
 320 -2 313 -1 313 14 c 4
 313 29 321 29 326 29 c 4
 380 29 382 46 384 121 c 4
 385 154 385 185 385 216 c 4xdc
EndSplineSet
EndChar

StartChar: i
Encoding: 105 105 9
Width: 252
VWidth: 0
Flags: W
HStem: -2 33<16.0015 74.2319 165.496 226.997> 369 32<21.0049 74.5306> 397 20G<146 152> 556 104<77.5153 162.485>
VStem: 68 104<565.515 650.485> 84 77<35.51 363.5>
LayerCount: 3
Fore
SplineSet
23 31 m 0xb4
 64 31 78 32 82 81 c 0
 84 103 84 152 84 187 c 2
 84 233 l 2
 84 258 84 288 83 308 c 0
 82 348 81 369 27 369 c 0
 22 369 21 375 21 386 c 0
 21 396 21 401 27 401 c 0xd4
 103 404 143 417 149 417 c 0
 155 417 164 414 164 403 c 0
 164 394 159 324 159 197 c 0
 159 163 159 108 161 75 c 0
 163 33 172 31 221 31 c 0
 226 31 227 22 227 14 c 0
 227 1 226 -2 221 -2 c 0
 213 -2 189 0 146 0 c 2
 110 0 l 2
 73 0 34 -2 26 -2 c 0
 18 -2 16 1 16 14 c 0
 16 27 17 31 23 31 c 0xb4
68 608 m 0x98
 68 637 91 660 120 660 c 0
 149 660 172 637 172 608 c 0
 172 579 149 556 120 556 c 0
 91 556 68 579 68 608 c 0x98
EndSplineSet
EndChar

StartChar: j
Encoding: 106 106 10
Width: 252
VWidth: 0
Flags: W
HStem: -227 30<-9.77464 71.6563> 372 32<37.0007 91.6562> 398 20G<164 172.5> 556 104<92.5153 177.485>
VStem: -90 68<-189.935 -124.544> 83 104<565.515 650.485> 105 75<-140.12 363.879>
LayerCount: 3
Fore
SplineSet
26 -197 m 0xba
 94 -197 105 -139 105 -50 c 2
 105 181 l 2
 105 237 105 280 104 313 c 0
 103 353 93 372 41 372 c 0
 38 372 37 375 37 387 c 0
 37 397 37 404 41 404 c 0xda
 117 406 159 418 169 418 c 0
 176 418 183 412 183 405 c 0
 183 401 180 330 180 182 c 2
 180 -9 l 2
 180 -101 163 -227 16 -227 c 0
 -54 -227 -90 -190 -90 -159 c 0
 -90 -141 -78 -122 -55 -122 c 0
 -31 -122 -22 -139 -22 -153 c 0
 -22 -166 -14 -197 26 -197 c 0xba
83 608 m 0x9c
 83 637 106 660 135 660 c 0
 164 660 187 637 187 608 c 0
 187 579 164 556 135 556 c 0
 106 556 83 579 83 608 c 0x9c
EndSplineSet
Layer: 2
SplineSet
-99 -159 m 4
 -99 -198 -59 -227 13 -227 c 4
 165 -227 179 -126 179 -41 c 4
 179 66 178 160 178 222 c 4
 178 370 180 401 180 405 c 4
 180 412 170 418 163 418 c 4
 153 418 113 404 46 404 c 4
 40 404 37 401 37 391 c 4
 37 379 40 376 45 376 c 4
 97 376 103 357 104 317 c 4
 105 284 105 241 105 185 c 6
 105 -51 l 6
 105 -125 104 -196 40 -196 c 4
 0 -196 -18 -178 -24 -159 c 4
 -30 -140 -40 -129 -67 -129 c 4
 -88 -129 -99 -148 -99 -159 c 4
83 608 m 4
 83 637 106 660 135 660 c 4
 164 660 187 637 187 608 c 4
 187 579 164 556 135 556 c 4
 106 556 83 579 83 608 c 4
EndSplineSet
EndChar

StartChar: k
Encoding: 107 107 11
Width: 502
VWidth: 0
Flags: W
HStem: -2 31<26.0089 76.4972 172.5 224.997 270.009 317.498 429.396 487.974> 379 28<271.024 319.15 396.505 444.999> 626 20<31.0029 74.7961> 639 20G<141 150>
VStem: 89 70<36.4383 202.46 233.481 620.729>
LayerCount: 3
Fore
SplineSet
478 29 m 0xe8
 486 29 488 20 488 12 c 0
 488 -1 484 -2 475 -2 c 0
 465 -2 444 0 403 0 c 2
 362 0 l 2
 325 0 299 -2 284 -2 c 0
 273 -2 270 0 270 13 c 0
 270 26 275 29 281 29 c 0
 307 29 319 36 319 54 c 0
 319 66 245 151 209 189 c 0
 197 201 197 205 188 205 c 0
 184 205 180 202 171 196 c 0
 160 188 159 185 159 180 c 2
 159 172 l 2
 159 145 160 104 161 93 c 0
 165 47 169 29 217 29 c 0
 225 29 225 20 225 12 c 0
 225 -1 224 -2 216 -2 c 0
 206 -2 185 0 142 0 c 2
 117 0 l 2
 80 0 55 -2 40 -2 c 0
 29 -2 26 0 26 13 c 0
 26 26 31 29 37 29 c 0
 76 29 90 53 90 89 c 0
 90 187 89 249 89 351 c 2
 89 577 l 2
 89 598 85 626 40 626 c 0
 35 626 31 627 31 636 c 0
 31 646 34 646 40 646 c 0xe8
 92 646 135 659 147 659 c 0xd8
 153 659 160 654 160 646 c 0
 160 623 159 531 159 255 c 2
 159 234 l 2
 159 220 163 220 177 231 c 0
 211 257 267 298 305 331 c 0
 316 341 322 348 322 356 c 0
 322 371 304 379 277 379 c 0
 273 379 271 385 271 392 c 0
 271 399 273 407 278 407 c 0
 287 407 305 405 357 405 c 2
 376 405 l 2
 409 405 433 407 436 407 c 0
 443 407 445 400 445 393 c 0
 445 387 445 379 437 379 c 0
 420 379 395 365 387 359 c 0
 335 322 285 280 258 258 c 0
 247 250 246 247 257 236 c 0
 294 196 366 104 426 47 c 0
 444 30 464 29 478 29 c 0xe8
EndSplineSet
EndChar

StartChar: l
Encoding: 108 108 12
Width: 254
VWidth: 0
Flags: W
HStem: -2 31<17.0089 78.5657 173.251 229.997> 623 20<31.0029 76.5696> 636 20G<142 153.5>
VStem: 92 68<37.9124 617.149>
LayerCount: 3
Fore
SplineSet
160 172 m 2xd0
 160 145 161 104 162 93 c 0
 166 40 174 29 222 29 c 0
 230 29 230 20 230 12 c 0
 230 -1 229 -2 221 -2 c 0
 211 -2 185 0 142 0 c 2
 117 0 l 2
 80 0 46 -2 31 -2 c 0
 20 -2 17 0 17 13 c 0
 17 26 22 29 28 29 c 0
 67 29 92 40 92 89 c 2
 92 413 l 2
 92 491 92 555 91 577 c 0
 90 598 85 623 40 623 c 0
 35 623 31 624 31 633 c 0
 31 643 34 643 40 643 c 0xd0
 96 643 136 656 148 656 c 0xb0
 159 656 163 651 163 643 c 0
 163 620 160 553 160 255 c 2
 160 172 l 2xd0
EndSplineSet
EndChar

StartChar: m
Encoding: 109 109 13
Width: 844
VWidth: 0
Flags: HMW
HStem: -2 31<35.0089 92.6672 192.089 256.996 317.006 379.485 478.171 543.967 604.006 663.551 765.5 823.948> 386 36<256.936 363.702 548.902 647.503>
VStem: 106 72<37.3633 318.028> 392 73<37.2259 317.317> 678 73<38.0789 359.256>
LayerCount: 3
Fore
SplineSet
331 -2 m 0x9e
 324 -2 317 -1 317 14 c 0
 317 29 325 29 330 29 c 0
 373 29 390 43 390 81 c 0
 391 125 392 164 392 204 c 0
 392 219 391 235 391 251 c 0
 389 330 387 386 310 386 c 0x9e
 226 386 178 313 178 226 c 0
 178 132 178 117 180 83 c 0
 183 37 201 29 249 29 c 0
 257 29 257 20 257 12 c 0
 257 -1 252 -2 239 -2 c 0
 229 -2 198 0 155 0 c 2
 130 0 l 2
 93 0 64 -2 49 -2 c 0
 38 -2 35 0 35 13 c 0
 35 26 40 29 46 29 c 0
 92 29 103 50 104 81 c 0
 105 119 106 165 106 211 c 0
 106 240 106 269 105 295 c 0
 103 343 103 371 46 371 c 0
 41 371 37 372 37 384 c 0
 37 394 40 396 46 396 c 0xce
 121 400 151 412 160 412 c 0
 165 412 171 410 172 402 c 2
 175 366 l 2
 177 345 180 347 188 357 c 0
 201 373 263 422 332 422 c 0
 390 422 435 401 456 359 c 0
 462 348 461 346 470 355 c 0
 486 371 550 420 620 420 c 0
 706 420 751 376 751 303 c 0
 751 239 751 175 751 111 c 0
 751 43 770 29 810 29 c 0
 816 29 824 27 824 16 c 0
 824 2 822 -2 811 -2 c 0
 797 -2 781 0 737 0 c 2
 708 0 l 2
 663 0 627 -2 618 -2 c 0
 611 -2 604 -1 604 14 c 0
 604 29 612 29 617 29 c 0
 667 29 678 48 678 123 c 2
 678 262 l 1
 676 332 669 382 600 382 c 0
 514 382 465 313 465 237 c 0
 465 181 465 93 466 84 c 0
 468 42 484 29 532 29 c 0
 539 29 544 25 544 16 c 0
 544 2 542 -2 531 -2 c 0
 517 -2 497 0 445 0 c 2
 420 0 l 2
 381 0 344 -2 331 -2 c 0x9e
EndSplineSet
Layer: 2
SplineSet
331 -2 m 4
 324 -2 317 -1 317 14 c 4
 317 29 325 29 330 29 c 4
 373 29 389 43 390 81 c 4
 390 113 391 143 391 170 c 6
 391 251 l 6
 391 327 387 386 310 386 c 4
 250 386 179 332 179 290 c 4
 179 232 179 97 180 83 c 4
 183 37 201 29 249 29 c 4
 257 29 257 20 257 12 c 4
 257 -1 252 -2 239 -2 c 4
 229 -2 198 0 155 0 c 6
 130 0 l 6
 93 0 63 -2 48 -2 c 4
 37 -2 34 0 34 13 c 4
 34 26 39 29 45 29 c 4
 91 29 102 50 103 81 c 4
 104 107 104 137 104 173 c 6
 104 295 l 6
 104 343 102 371 45 371 c 4
 40 371 36 372 36 384 c 4
 36 394 39 396 45 396 c 4
 120 400 151 412 160 412 c 4
 165 412 171 410 172 402 c 6
 176 366 l 6
 177 356 179 348 189 357 c 4
 205 372 263 422 332 422 c 4
 390 422 431 402 452 366 c 4
 459 354 462 348 475 359 c 4
 491.431122991 373.083819706 549.763534172 420 620 420 c 4
 706 420 752 376 752 303 c 4
 752 239 751 175 750 111 c 4
 750 50 770 29 810 29 c 4
 816 29 824 27 824 16 c 4
 824 2 822 -2 811 -2 c 4
 797 -2 781 0 737 0 c 6
 708 0 l 6
 663 0 627 -2 618 -2 c 4
 611 -2 604 -1 604 14 c 4
 604 29 612 29 617 29 c 4
 667 29 678 48 678 123 c 6
 678 262 l 5
 676 332 669 382 600 382 c 4
 550 382 464 333 464 285 c 4
 464 278 465 256 465 248 c 4
 465 182 465 97 466 84 c 4
 468 42 484 29 532 29 c 4
 539 29 544 25 544 16 c 4
 544 2 542 -2 531 -2 c 4
 517 -2 497 0 445 0 c 6
 420 0 l 6
 381 0 344 -2 331 -2 c 4
EndSplineSet
EndChar

StartChar: n
Encoding: 110 110 14
Width: 550
VWidth: 0
Flags: MW
HStem: -2 31<35.0089 92.6672 192.089 256.996 317.006 379.485 479.124 528.967> 379 41<251.165 361.923>
VStem: 106 72<37.3633 316.865> 392 74<37.1425 347.233>
LayerCount: 3
Fore
SplineSet
466 274 m 0
 466 218 466 93 467 84 c 0
 469 42 489 29 517 29 c 0
 524 29 529 25 529 16 c 0
 529 2 527 -2 516 -2 c 0
 502 -2 493 0 441 0 c 2
 415 0 l 2
 376 0 344 -2 331 -2 c 0
 324 -2 317 -1 317 14 c 0
 317 29 325 29 330 29 c 0
 373 29 390 43 390 81 c 0
 391 129 392 170 392 215 c 0
 392 296 390 379 309 379 c 0
 214 379 178 302 178 226 c 0
 178 132 178 117 180 83 c 0
 183 37 201 29 249 29 c 0
 257 29 257 20 257 12 c 0
 257 -1 252 -2 239 -2 c 0
 229 -2 198 0 155 0 c 2
 130 0 l 2
 93 0 64 -2 49 -2 c 0
 38 -2 35 0 35 13 c 0
 35 26 40 29 46 29 c 0
 92 29 103 50 104 81 c 0
 105 119 106 165 106 211 c 0
 106 240 106 269 105 295 c 4
 103 343 103 371 46 371 c 4
 41 371 37 372 37 384 c 4
 37 394 40 396 46 396 c 4
 121 400 151 412 160 412 c 4
 165 412 171 410 172 402 c 6
 175 359 l 6
 176 343 181 342 188 352 c 0
 200 369 258 420 327 420 c 0
 414 420 466 370 466 274 c 0
EndSplineSet
EndChar

StartChar: o
Encoding: 111 111 15
Width: 496
VWidth: 0
Flags: W
HStem: -14 34.9932<184.428 311.046> 390 33<188.294 301.345>
VStem: 30 89<103.029 301.773> 370 89<113.116 309.02>
LayerCount: 3
Fore
SplineSet
249 423 m 0
 394 423 459 316 459 206 c 0
 459 104 382 -14 246 -14 c 0
 86 -14 30 108 30 209 c 0
 30 296 95 423 249 423 c 0
246.830078125 20.9931640625 m 0
 354 20.9931640625 370 116.887695312 370 205 c 0
 370 324 322 390 246 390 c 0
 154 390 119 299 119 208 c 0
 119 120.404296875 146 20.9931640625 246.830078125 20.9931640625 c 0
EndSplineSet
EndChar

StartChar: p
Encoding: 112 112 16
Width: 538
VWidth: 0
Flags: W
HStem: -229 31<25.0029 81.0709 176.899 237.997> -8 38<217.56 350.44> 385 25<25.0088 75.7838> 389 35<226.339 353.083>
VStem: 92 72<-190.476 30 75.2148 341.207> 425 83<112.129 310.034>
LayerCount: 3
Fore
SplineSet
168 371 m 0xec
 208 399 237 424 321 424 c 0xdc
 436 424 508 320 508 211 c 0
 508 100 442 -8 309 -8 c 0
 236 -8 212 13 175 36 c 0
 166 41 164 39 164 30 c 2
 164 -41 l 2
 164 -79 164 -116 167 -152 c 4
 170 -198 200 -198 230 -198 c 4
 238 -198 238 -207 238 -215 c 4
 238 -228 234 -229 224 -229 c 4
 214 -229 188 -227 145 -227 c 6
 120 -227 l 6
 83 -227 53 -229 38 -229 c 4
 28 -229 25 -227 25 -214 c 4
 25 -201 29 -198 35 -198 c 4
 65 -198 92 -194 92 -139 c 4
 92 37 90 140 90 315 c 0
 90 359 89 385 34 385 c 0
 29 385 25 386 25 398 c 0
 25 408 28 410 34 410 c 0
 109 414 129 420 138 420 c 0
 144 420 153 420 154 410 c 2
 157 377 l 2
 159 365 163 367 168 371 c 0xec
288 389 m 0
 225 389 167 351 163 277 c 0
 162 262 161 240 161 217 c 0
 161 189 162 160 163 145 c 0
 166 69 217 30 285 30 c 0
 381 30 425 123 425 219 c 0
 425 299 386 389 288 389 c 0
EndSplineSet
EndChar

StartChar: q
Encoding: 113 113 17
Width: 542
VWidth: 0
Flags: W
HStem: -234 31<300.003 366.694 463.486 518.997> -10 36<191.705 322.381> 389 35<194.52 316.61> 392 20G<437.5 443.5>
VStem: 29 82<111.285 301.965> 378 70<-193.125 25.0033 67.328 348.697>
LayerCount: 3
Fore
SplineSet
450 -154 m 0xdc
 455 -190 472 -203 511 -203 c 0
 519 -203 519 -212 519 -220 c 0
 519 -233 515 -234 505 -234 c 0
 495 -234 468 -232 425 -232 c 2
 400 -232 l 2
 363 -232 328 -234 313 -234 c 0
 303 -234 300 -232 300 -219 c 0
 300 -206 304 -203 310 -203 c 0
 352 -203 378 -192 378 -157 c 2
 378 17 l 2
 378 32 373 36 357 25 c 0
 334 9 283 -10 242 -10 c 0
 84 -10 29 118 29 206 c 0
 29 341 127 424 243 424 c 0xec
 307 424 360 385 380 364 c 0
 387 356 392 356 398 365 c 2
 422 397 l 2
 428 405 434 412 441 412 c 0
 446 412 450 407 450 401 c 16
 450 272 448 291 448 116 c 2
 448 -55 l 2
 448 -106 448 -142 450 -154 c 0xdc
111 207 m 0
 111 117 164 26 252 26 c 0
 349 26 379 83 379 137 c 2
 379 206 l 2
 379 242 379 274 376 303 c 0
 371 357 315 389 258 389 c 0
 160 389 111 292 111 207 c 0
EndSplineSet
EndChar

StartChar: r
Encoding: 114 114 18
Width: 370
VWidth: 0
Flags: W
HStem: -2 33<18.0012 77.7516 169.399 238.999> 364 32<15.0007 72.8758> 367 52<212.998 302>
VStem: 84 77<37.3684 331.254>
LayerCount: 3
Fore
SplineSet
245 367 m 0xb0
 187 367 161 297 161 276 c 2
 161 207 l 2
 161 101 161 103 162 78 c 0
 163 36 182 31 236 31 c 0
 238 31 239 26 239 14 c 0
 239 0 238 -2 235 -2 c 0
 225 -2 181 0 138 0 c 2
 117 0 l 2
 80 0 38 -2 23 -2 c 0
 18 -2 18 3 18 13 c 0
 18 22 18 31 23 31 c 0
 62 31 81 34 83 69 c 0
 84 86 84 98 84 108 c 2
 84 170 l 2
 84 269 84 299 82 327 c 0
 80 357 57 364 20 364 c 0
 15 364 15 372 15 381 c 0
 15 391 16 396 21 396 c 0xd0
 96 400 119 414 132 414 c 0
 140 414 144 408 144 404 c 2
 146 354 l 2
 147 345 147 338 150 338 c 0
 153 338 157 344 168 358 c 0
 197 396 243 419 288 419 c 0
 316 419 362 400 362 356 c 0
 362 336 346 317 325 317 c 0
 281 317 292 367 245 367 c 0xb0
EndSplineSet
Layer: 2
SplineSet
32 29 m 0
 52 29 83 31 84 76 c 0
 85 131 86 219 86 281 c 0
 86 330 85 367 27 371 c 0
 22 371 18 373 18 382 c 0
 18 392 21 395 27 395 c 0
 62 395 119 412 129 412 c 0
 136 412 143 407 143 400 c 0
 143 396 144 372 147 339 c 0
 148 324 149 318 160 333 c 0
 203 394 232 418 291 418 c 0
 318 418 361 393 361 355 c 0
 361 327 346 314 326 314 c 0
 278 314 291 374 256 374 c 4
 205 374 161 294 161 252 c 0
 161 203 161 138 162 83 c 0
 163 37 182 29 229 29 c 0
 237 29 237 20 237 12 c 0
 237 0 232 -2 224 -2 c 0
 214 -2 184 0 141 0 c 2
 112 0 l 2
 75 0 50 -2 35 -2 c 0
 24 -2 21 0 21 13 c 0
 21 26 26 29 32 29 c 0
EndSplineSet
EndChar

StartChar: s
Encoding: 115 115 19
Width: 359
VWidth: 0
Flags: W
HStem: -16 34<127.962 231.183> 391 33<124.982 221.605>
VStem: 39 27<89.0654 129.994> 44 57<284.952 372.935> 258 61<42.2963 136.191> 266 27<282.396 334.316>
LayerCount: 3
Fore
SplineSet
274 424 m 0xd8
 288 424 294 419 294 413 c 0
 294 403 291 387 291 341 c 0
 291 328 293 294 293 290 c 0
 293 284 287 283 276 282 c 0
 272 282 267 286 266 290 c 0
 258 342 231 391 169 391 c 0
 124 391 101 354 101 328 c 0xd4
 101 228 319 270 319 117 c 0
 319 45 268 -16 183 -16 c 0
 149 -16 122 -9 103 -3 c 0
 95 0 86 3 84 3 c 0
 71 3 77 -14 57 -14 c 0
 49 -14 38 -14 38 -3 c 0
 38 39 39 82 39 123 c 0
 39 128 46 130 53 130 c 0
 59 130 65 128 66 124 c 0xe8
 78 75 121 18 182 18 c 0
 221 18 258 45 258 86 c 0
 258 198 44 157 44 305 c 0
 44 372 94 424 168 424 c 0
 221 424 249 409 256 409 c 0
 268 409 258 424 274 424 c 0xd8
EndSplineSet
Layer: 2
SplineSet
159 426 m 4
 215 426 242 395 250 395 c 4
 260 395 260 411 264 421 c 4
 265 424 268 426 271 426 c 4
 282 426 285 423 285 418 c 4
 285 413 284 401 283 388 c 4
 282 370 282 355 282 338 c 4
 282 325 282 312 283 295 c 4
 283 288 262 285 260 294 c 4
 246 352 212 400 154 400 c 4
 122 400 96 374 96 342 c 4
 96 238 317 258 317 114 c 4
 317 44 268 -10 189 -10 c 4
 138 -10 105 20 86 20 c 4
 75 20 75 8 72 -3 c 4
 71 -8 64 -9 58 -9 c 4
 50 -9 43 -7 43 0 c 4
 43 42 44 84 44 125 c 4
 44 131 64 133 66 125 c 4
 79 74 124 17 184 17 c 4
 223 17 262 40 262 83 c 4
 262 194 43 164 43 313 c 4
 43 375 100 426 159 426 c 4
EndSplineSet
EndChar

StartChar: t
Encoding: 116 116 20
Width: 304
VWidth: 0
Flags: W
HStem: -13 46<177.388 260.6> 373 38<161.815 278> 373 27<38.0007 67.875>
VStem: 80 79<50.9953 373> 132 29<478.259 521.988>
LayerCount: 3
Fore
SplineSet
43 400 m 0xb0
 75 410 114 448 132 516 c 0
 133 521 139 522 148 522 c 0
 154 522 161 521 161 516 c 2
 161 426 l 2
 161 411 162 411 175 411 c 2
 273 411 l 2
 278 411 278 398 278 392 c 0
 278 386 278 373 273 373 c 2
 175 373 l 2xc8
 167 373 163 372 162 361 c 0
 160 312 159 207 159 149 c 0
 159 93 165 33 217 33 c 0
 259 33 278 72 280 72 c 0
 282 72 298 57 298 54 c 0
 298 50 269 -13 189 -13 c 0
 116 -13 80 30 80 135 c 0
 80 218 83 275 83 360 c 0
 83 373 80 373 70 373 c 2
 43 373 l 2
 39 373 38 378 38 386 c 0
 38 396 38 398 43 400 c 0xb0
EndSplineSet
Layer: 2
SplineSet
28 412 m 0xe0
 117 412 121 454 133 516 c 0
 134 521 138 526 147 526 c 0
 153 526 161 524 161 512 c 2
 161 454 l 2xd0
 161 435 161 411 180 411 c 2
 266 411 l 2
 278 411 278 402 278 396 c 0
 278 390 278 382 265 382 c 2
 184 382 l 2
 167 382 163 363 162 346 c 0
 160 297 159 215 159 157 c 0
 159 101 161 29 212 29 c 0
 251 29 271 68 280 68 c 4
 287 68 296 58 296 52 c 0
 296 36 241 -13 184 -13 c 0
 119 -13 84 31 84 138 c 0
 84 221 88 274 88 359 c 0
 88 372 83 387 70 387 c 2
 28 387 l 2
 24 387 20 390 20 398 c 0
 20 408 23 412 28 412 c 0xe0
EndSplineSet
EndChar

StartChar: u
Encoding: 117 117 21
Width: 544
VWidth: 0
Flags: W
HStem: -16 40<192.692 307.226 468.938 517.518> 377 26<19.0015 71.3351 318.232 365.876>
VStem: 85 77<54.8838 369.327> 380 75<38.4558 40.2635 81.857 368.028>
LayerCount: 3
Fore
SplineSet
246 24 m 0
 322 24 375 83 379 136 c 0
 380 148 380 158 380 171 c 2
 380 309 l 2
 380 360 371 371 331 373 c 0
 319 374 318 375 318 386 c 0
 318 399 323 401 332 401 c 0
 371 401 428 407 440 407 c 0
 450 407 456 403 456 387 c 0
 456 372 455 334 455 124 c 0
 455 101 456 77 460 61 c 0
 467 32 497 28 510 28 c 0
 518 28 522 24 522 14 c 0
 522 3 519 4 510 3 c 0
 452 -3 417 -11 410 -11 c 0
 392 -11 391 13 386 58 c 0
 384 72 383 69 373 56 c 0
 348 23 291 -16 228 -16 c 0
 117 -16 85 42 85 156 c 0
 85 192 86 239 86 280 c 0
 86 305 86 328 82 347 c 0
 78 369 50 377 27 377 c 0
 20 377 19 382 19 390 c 0
 19 398 21 403 27 403 c 0
 108 403 123 407 140 407 c 0
 155 407 163 403 163 388 c 0
 163 335 162 353 162 135 c 0
 162 97 170 24 246 24 c 0
EndSplineSet
Layer: 2
SplineSet
27 403 m 4
 79 403 123 407 140 407 c 4
 155 407 163 403 163 388 c 4
 163 335 162 337 162 119 c 4
 162 99 170 24 246 24 c 4
 312 24 361 64 375 125 c 4
 379 142 379 161 379 181 c 6
 379 216 l 6
 379 249 379 278 377 314 c 4
 375 356 370 364 331 373 c 4
 319 376 318 375 318 386 c 4
 318 399 323 401 332 401 c 4
 371 401 426 407 438 407 c 4
 448 407 456 404 456 382 c 6
 456 164 l 6
 456 123 456 84 461 59 c 4
 467 30 497 28 510 28 c 4
 518 28 522 24 522 14 c 4
 522 3 519 2 505 1 c 4
 463 -3 419 -12 412 -12 c 4
 391 -12 394 9 388 49 c 4
 386 60 385 64 383 64 c 4
 381 64 378 61 373 55 c 4
 354 33 305 -16 230 -16 c 4
 104.181883463 -16 86 54 86 156 c 6
 86 314 l 6
 86 360 71 377 27 377 c 4
 23 377 19 382 19 390 c 4
 19 398 21 403 27 403 c 4
EndSplineSet
EndChar

StartChar: v
Encoding: 118 118 22
Width: 493
VWidth: 0
Flags: W
HStem: -14 21G<240 249.5> 379 28<148.858 199.976 327.024 370.121 447.793 481>
VStem: 379 102<325.5 396.5>
LayerCount: 3
Fore
SplineSet
146 355 m 0
 146 349 150 341 156 325 c 0
 178 270 228 165 260 101 c 0
 267 88 271 86 277 100 c 0
 313 184 379 306 379 345 c 0
 379 366 357 379 333 379 c 0
 329 379 327 385 327 392 c 0
 327 399 329 407 334 407 c 0
 343 407 357 405 399 405 c 2
 426 405 l 2
 459 405 469 407 472 407 c 0
 481 407 481 400 481 393 c 0
 481 384 481 382 473 379 c 0
 449 371 431 355 405 301 c 0
 360 208 313 103 264 -4 c 0
 261 -11 254 -14 245 -14 c 0
 235 -14 230 -11 226 -4 c 0
 184 75 107 242 51 352 c 0
 46 361 38 376 26 377 c 0
 18 378 17 387 17 393 c 0
 17 400 20 407 27 407 c 0
 30 407 47 405 80 405 c 2
 117 405 l 2
 159 405 184 407 193 407 c 0
 198 407 200 399 200 392 c 0
 200 385 198 379 194 379 c 0
 167 379 146 374 146 355 c 0
EndSplineSet
EndChar

StartChar: w
Encoding: 119 119 23
Width: 723
VWidth: 0
Flags: W
HStem: -16 21G<215 226.5 482.5 494> 379 28<14.0022 48.2004 153.253 184.976 562.024 599.83 672.002 706>
VStem: 14 138<335.5 396.5> 606 100<336 396.5>
DStem2: 250 109 242 -4 0.370201 0.928952<2.35967 183.399> 410 367 364 267 0.367537 -0.930009<74.9924 268.154>
LayerCount: 3
Fore
SplineSet
152 348 m 0
 152 323 212 169 235 110 c 0
 240 96 244 95 250 109 c 0
 282 183 333 326 352 368 c 0
 367 402 366 402 380 402 c 0
 394 402 398 402 410 367 c 0
 428 312 479 178 506 113 c 0
 512 99 515 98 521 112 c 0
 555 197 606 327 606 345 c 0
 606 366 592 379 568 379 c 0
 564 379 562 385 562 392 c 0
 562 399 564 407 569 407 c 0
 578 407 582 405 624 405 c 2
 651 405 l 2
 684 405 694 407 697 407 c 0
 706 407 706 400 706 393 c 0
 706 384 706 382 698 379 c 0
 674 371 653 356 630 301 c 0
 592 210 558 103 509 -4 c 0
 506 -11 500 -16 488 -16 c 0
 477 -16 472 -12 469 -5 c 0
 447 47 404 165 364 267 c 0
 357 285 355 290 348 272 c 0
 314 187 279 90 242 -4 c 0
 239 -11 231 -16 222 -16 c 0
 208 -16 205 -11 202 -4 c 0
 168 76 69 333 57 352 c 0
 52 360 45 377 23 377 c 0
 15 377 14 387 14 393 c 0
 14 400 17 407 24 407 c 0
 27 407 57 405 90 405 c 2
 107 405 l 2
 149 405 169 407 178 407 c 0
 183 407 185 399 185 392 c 0
 185 385 183 379 179 379 c 0
 152 379 152 367 152 348 c 0
EndSplineSet
EndChar

StartChar: x
Encoding: 120 120 24
Width: 400
VWidth: 0
Flags: W
HStem: 154 144<155 257>
VStem: 134 144<175 277>
LayerCount: 3
Fore
SplineSet
134 226 m 4
 134 266 166 298 206 298 c 4
 246 298 278 266 278 226 c 4
 278 186 246 154 206 154 c 4
 166 154 134 186 134 226 c 4
EndSplineSet
EndChar

StartChar: y
Encoding: 121 121 25
Width: 400
VWidth: 0
Flags: W
HStem: 154 144<155 257>
VStem: 134 144<175 277>
LayerCount: 3
Fore
SplineSet
134 226 m 4
 134 266 166 298 206 298 c 4
 246 298 278 266 278 226 c 4
 278 186 246 154 206 154 c 4
 166 154 134 186 134 226 c 4
EndSplineSet
EndChar

StartChar: z
Encoding: 122 122 26
Width: 400
VWidth: 0
Flags: W
HStem: 154 144<155 257>
VStem: 134 144<175 277>
LayerCount: 3
Fore
SplineSet
134 226 m 4
 134 266 166 298 206 298 c 4
 246 298 278 266 278 226 c 4
 278 186 246 154 206 154 c 4
 166 154 134 186 134 226 c 4
EndSplineSet
EndChar

